<?xml version="1.0" encoding="UTF-8"?>
<svg id="Layer_1" data-name="Layer 1" xmlns="http://www.w3.org/2000/svg" viewBox="0 0 675.3 462.84">
  <defs>
    <style>
      .cls-1 {
        fill: #fff;
      }

      .cls-2 {
        fill: #89c59a;
      }
    </style>
  </defs>
  <g id="Artwork_2" data-name="Artwork 2">
    <g>
      <path class="cls-1" d="m27.41,244.84c0-3.81,3.1-7.03,7.03-7.03s6.91,3.22,6.91,7.03-3.1,6.91-6.91,6.91-7.03-3.1-7.03-6.91m1.79,17.75h10.36v59.57h-10.36v-59.57Z"/>
      <path class="cls-1" d="m52.07,292.38c0-17.63,13.34-31.33,31.33-31.33,11.79,0,21.8,6.19,26.33,15.61l-8.7,5c-2.98-6.32-9.65-10.48-17.63-10.48-11.91,0-20.97,9.17-20.97,21.2s9.06,21.09,20.97,21.09c8.1,0,14.65-4.17,17.99-10.37l8.81,5.12c-5,9.29-15.13,15.49-26.8,15.49-17.99,0-31.33-13.7-31.33-31.33"/>
      <path class="cls-1" d="m179.3,262.6v59.56h-10.36v-10.25c-4.76,7.27-12.39,11.79-22.52,11.79-16.56,0-30.14-13.7-30.14-31.33s13.58-31.33,30.14-31.33c10.12,0,17.75,4.53,22.52,11.79v-10.25h10.36Zm-10.36,29.78c0-12.15-9.17-21.33-21.2-21.33s-21.09,9.17-21.09,21.33,9.17,21.33,21.09,21.33,21.2-9.17,21.2-21.33"/>
      <path class="cls-2" d="m223.85,313.94c8.22,0,14.18-3.81,17.16-8.7l8.81,5c-5.24,8.1-14.29,13.46-26.21,13.46-19.18,0-31.93-13.46-31.93-31.33s12.63-31.33,31.21-31.33,29.66,14.77,29.66,31.45c0,1.55-.12,3.1-.36,4.65h-49.92c2.03,10.72,10.48,16.8,21.56,16.8m-21.56-25.85h39.79c-1.79-11.79-10.25-17.28-19.18-17.28-11.2,0-18.94,6.91-20.61,17.28"/>
      <polygon class="cls-2" points="314.99 262.59 291.16 322.16 279.01 322.16 255.18 262.59 266.38 262.59 285.09 311.08 303.79 262.59 314.99 262.59"/>
      <path class="cls-2" d="m350.25,313.94c8.22,0,14.18-3.81,17.16-8.7l8.81,5c-5.24,8.1-14.29,13.46-26.21,13.46-19.18,0-31.93-13.46-31.93-31.33s12.63-31.33,31.21-31.33,29.66,14.77,29.66,31.45c0,1.55-.12,3.1-.36,4.65h-49.92c2.03,10.72,10.48,16.8,21.56,16.8m-21.56-25.85h39.79c-1.79-11.79-10.25-17.28-19.18-17.28-11.2,0-18.94,6.91-20.61,17.28"/>
      <path class="cls-2" d="m443.65,285.59v36.57h-10.36v-35.98c0-9.77-5.6-15.25-14.77-15.25s-17.28,5.6-17.28,19.66v31.57h-10.36v-59.57h10.36v8.58c4.41-7.03,10.96-10.13,19.3-10.13,13.94,0,23.11,9.29,23.11,24.54"/>
      <path class="cls-2" d="m474.62,272.6v32.28c0,9.06,5.24,8.46,15.84,7.98v9.29c-17.87,2.38-26.21-2.38-26.21-17.28v-32.28h-11.79v-10.01h11.79v-13.58l10.36-3.1v16.68h15.84v10.01h-15.84Z"/>
      <path class="cls-2" d="m542.17,305.84c0,11.08-9.53,17.87-22.28,17.87-11.91,0-20.25-5.72-23.71-13.94l8.93-5.12c1.91,5.72,7.39,9.29,14.77,9.29,6.31,0,11.79-2.26,11.79-8.1,0-12.75-33.36-5.48-33.36-27.04,0-10.48,9.05-17.75,21.09-17.75,9.77,0,17.63,4.65,21.44,12.39l-8.7,4.88c-2.26-5.36-7.5-7.62-12.75-7.62s-10.6,2.62-10.6,7.98c0,12.75,33.36,5.24,33.36,27.16"/>
      <path class="cls-1" d="m514.87,171.16c1.09,4.08,2.81,8.08,4.99,12.04,6.42,11.64,16.86,22.85,27.33,34.26,1.7,1.85,3.45,3.77,5.13,5.6,71.66,77.73-20.73,185.51-199.23,240.78h2.5l2.33-.59c165.39-43.55,274.81-141.02,256.77-208.71-3.02-11.32-9.8-21.48-18.99-31.5-4.51-4.92-8.64-9.42-14.28-15.56-3.73-4.06-18.78-20.32-22.28-24.28-48.38-54.78,1.21-108.91,116.74-154.92v-1.78c-116.14,39.79-176.15,88.23-161,144.66"/>
    </g>
  </g>
</svg>